<svg xmlns="http://www.w3.org/2000/svg" height="512" viewBox="0 0 24 24" width="512"><path fill="#eceff1" d="M5.574 15.362l-1.267 7.767a.75.75 0 0 0 1.103.777L12 20.264l6.59 3.643a.76.76 0 0 0 .363.093.75.75 0 0 0 .74-.871l-1.267-7.767 5.36-5.494a.75.75 0 0 0-.423-1.265l-7.378-1.127L12.678.432c-.247-.526-1.11-.526-1.357 0L8.015 7.476.637 8.603a.75.75 0 0 0-.598.503.75.75 0 0 0 .174.762zm3.063-6.464a.75.75 0 0 0 .565-.422L12 2.515l2.798 5.96c.106.226.318.385.565.422l6.331.967-4.605 4.72a.75.75 0 0 0-.204.645l1.08 6.617-5.602-3.096c-.113-.062-.238-.094-.363-.094s-.25.031-.363.094l-5.602 3.096 1.08-6.617a.75.75 0 0 0-.204-.645l-4.605-4.72z"/></svg>